<?xml version="1.0" encoding="utf-8"?>
<!-- Generator: Adobe Illustrator 24.0.2, SVG Export Plug-In . SVG Version: 6.00 Build 0)  -->
<svg version="1.1" id="Layer_1" xmlns="http://www.w3.org/2000/svg" xmlns:xlink="http://www.w3.org/1999/xlink" x="0px" y="0px"
	 viewBox="0 0 150 150" style="enable-background:new 0 0 150 150;" xml:space="preserve">
<style type="text/css">
	.st0{fill:#FFFFFF;}
	.st1{fill:#D48900;}
	.st2{fill:none;stroke:#000000;stroke-miterlimit:10;}
</style>
<g>
	<g>
		<path class="st0" d="M75,125.5c-27.8,0-50.5-22.7-50.5-50.5c0-10.6,3.2-20.7,9.4-29.3l0.3-0.5l-0.5-0.3c-4.5-2.3-7.2-6.9-7.2-11.9
			c0-7.4,6.1-13.5,13.5-13.5c5.9,0,11.1,3.8,12.9,9.5l0.2,0.5l0.5-0.2c6.7-3.2,13.9-4.8,21.4-4.8s14.7,1.6,21.4,4.8l0.5,0.2l0.2-0.5
			c1.8-5.7,6.9-9.5,12.9-9.5c7.4,0,13.5,6.1,13.5,13.5c0,5-2.8,9.6-7.2,11.9l-0.5,0.3l0.3,0.5c6.1,8.6,9.4,18.7,9.4,29.3
			C125.5,102.8,102.8,125.5,75,125.5z"/>
		<path d="M110,20c7.2,0,13,5.8,13,13c0,4.8-2.7,9.2-7,11.5l-1,0.5l0.7,0.9c6.1,8.5,9.3,18.6,9.3,29c0,27.6-22.4,50-50,50
			s-50-22.4-50-50c0-10.5,3.2-20.5,9.3-29L35,45l-1-0.5c-4.3-2.3-7-6.7-7-11.5c0-7.2,5.8-13,13-13c5.7,0,10.7,3.7,12.4,9.1l0.3,1.1
			l1-0.5C60.5,26.6,67.6,25,75,25s14.5,1.6,21.2,4.7l1,0.5l0.3-1.1C99.3,23.7,104.3,20,110,20 M110,19c-6.3,0-11.6,4.1-13.4,9.8
			C90.1,25.7,82.7,24,75,24s-15.1,1.7-21.6,4.8C51.6,23.1,46.3,19,40,19c-7.7,0-14,6.3-14,14c0,5.4,3,10,7.5,12.4
			C27.5,53.7,24,64,24,75c0,28.2,22.8,51,51,51s51-22.8,51-51c0-11-3.5-21.3-9.5-29.6c4.5-2.3,7.5-7,7.5-12.4
			C124,25.3,117.7,19,110,19L110,19z"/>
	</g>
	<g>
		<circle class="st1" cx="40" cy="33" r="10"/>
	</g>
	<g>
		<circle class="st1" cx="110" cy="33" r="10"/>
	</g>
</g>
<g>
	<circle cx="53" cy="66" r="3"/>
	<circle cx="97" cy="66" r="3"/>
	<path class="st2" d="M97.2,86c-2.6,9.8-11.6,17-22.2,17c-10.6,0-19.6-7.2-22.2-17"/>
</g>
</svg>
