<?xml version="1.0" encoding="utf-8"?>
<!-- Generator: Adobe Illustrator 24.0.2, SVG Export Plug-In . SVG Version: 6.00 Build 0)  -->
<svg version="1.1" id="Layer_1" xmlns="http://www.w3.org/2000/svg" xmlns:xlink="http://www.w3.org/1999/xlink" x="0px" y="0px"
	 viewBox="0 0 300 100" style="enable-background:new 0 0 300 100;" xml:space="preserve">
<path d="M140.1,24.5c-1.8,3.6-5.3,11.5-10.6,23.5c-4.4,10.1-8.2,18-11.3,23.7c-5.4,9.9-8.3,15.2-8.6,15.8c-2,3-4.4,4.5-7,4.5
	c-1.9,0-3.6-0.6-5-1.9c-1.6-1.4-2.4-3.1-2.4-5.1c0-1.7,3.6-8.8,10.8-21.3c-2.7-3.8-6.5-9.6-11.4-17.4c-3.7-5.7-9.2-14.4-16.4-25.9
	c-0.7-1.2-1-2.4-1-3.7c0-2,0.8-3.7,2.3-5.1c1.4-1.3,3.1-1.9,5.1-1.9c2.3,0,4.3,1.2,6.2,3.5l3.9,6.2c0.2,0.4,3.2,5.5,8.9,15.1
	c3.6,6.2,6.8,11.1,9.5,14.6c2.6-5.3,6.4-13.3,11.3-24c1-2.4,2.6-6,4.7-10.8c1.3-3.1,3.6-4.7,6.7-4.7c1.9,0,3.6,0.6,5,1.9
	c1.6,1.3,2.4,3,2.4,5.1C143.1,17.8,142.1,20.4,140.1,24.5z"/>
<path d="M222.7,16.3c-0.7,2.5-1,4.7-1,6.6c0,1-0.1,2.5-0.3,4.5c-0.2,2-0.3,3.5-0.3,4.5c0,3.3-0.2,8.2-0.5,14.7
	c-0.3,6.5-0.5,11.4-0.5,14.7c0,2.5,0.2,6.3,0.6,11.3s0.6,8.8,0.6,11.3c0,1.9-0.7,3.5-2,4.8c-1.3,1.3-3,2-5,2c-2,0-3.8-0.6-5.3-1.9
	c-1.5-1.3-2.2-2.9-2.2-4.7c0-2.5-0.1-6.3-0.3-11.3c-0.2-5-0.3-8.8-0.3-11.3c0-2,0-3.7,0.1-5.2c-5.4,0.2-12.1,1.1-20.1,2.5
	c-6.6,1.2-13.3,2.4-19.9,3.7c-0.1,2.2-0.3,5.8-0.7,11c-0.3,4.5-0.5,8.2-0.5,11.1c0,1.8-0.7,3.3-2,4.5c-1.3,1.2-3,1.8-5,1.8
	s-3.7-0.6-5-1.9s-2-2.8-2-4.7c0-3.4,0.3-8.5,0.9-15.3c0.6-6.8,0.9-11.9,0.9-15.3c0-4.3,0.1-10.8,0.3-19.5c0.2-8.7,0.3-15.2,0.3-19.5
	c0-1.9,0.7-3.4,2-4.7c1.3-1.3,3-1.9,5-1.9s3.7,0.7,5,2c1.3,1.3,2,2.9,2,4.8c0,2.6-0.1,6.6-0.3,11.8c-0.2,5.3-0.3,9.2-0.3,11.8
	c0,0.9-0.1,2.5-0.4,5c-0.2,2.3-0.3,4-0.3,5.2l19.9-3.7c7.8-1.4,14.5-2.2,20.1-2.4c0.1-2.3,0.4-8.6,0.7-18.8c0.1-2.7,0.9-5.8,2.4-9.3
	c1.9-4.3,4.1-6.4,6.6-6.4c1.8,0,3.5,0.6,4.9,1.8c1.5,1.3,2.3,3,2.3,4.9C222.9,15.3,222.8,15.8,222.7,16.3z"/>
</svg>
