<svg xmlns="http://www.w3.org/2000/svg" viewBox="0 0 300 300" style="enable-background:new 0 0 300 300" xml:space="preserve"><circle cx="150" cy="150" r="60" style="fill:#ffe42a"/><path d="M276 150s-4.1-7.6-10.8-15.2c4.5-9 6.5-17.4 6.5-17.4s-6-6.3-14.4-11.8c2-9.9 1.8-18.5 1.8-18.5s-7.4-4.5-17-7.7C241.5 69.3 239 61 239 61s-8.3-2.4-18.4-3.1c-3.2-9.6-7.7-17-7.7-17s-8.7-.2-18.5 1.8c-5.6-8.4-11.8-14.4-11.8-14.4s-8.4 2-17.4 6.5C157.6 28.1 150 24 150 24s-7.6 4.1-15.2 10.8c-9-4.5-17.4-6.5-17.4-6.5s-6.3 6-11.8 14.4c-9.9-2-18.5-1.8-18.5-1.8s-4.5 7.4-7.7 17C69.3 58.5 61 61 61 61s-2.4 8.3-3.1 18.4c-9.6 3.2-17 7.7-17 7.7s-.2 8.7 1.8 18.5c-8.4 5.6-14.4 11.8-14.4 11.8s2 8.4 6.5 17.4C28.1 142.4 24 150 24 150s4.1 7.6 10.8 15.2c-4.5 9-6.5 17.4-6.5 17.4s6 6.3 14.4 11.8c-2 9.9-1.8 18.5-1.8 18.5s7.4 4.5 17 7.7C58.5 230.7 61 239 61 239s8.3 2.4 18.4 3.1c3.2 9.6 7.7 17 7.7 17s8.7.2 18.5-1.8c5.6 8.4 11.8 14.4 11.8 14.4s8.4-2 17.4-6.5c7.6 6.7 15.2 10.8 15.2 10.8s7.6-4.1 15.2-10.8c9 4.5 17.4 6.5 17.4 6.5s6.3-6 11.8-14.4c9.9 2 18.5 1.8 18.5 1.8s4.5-7.4 7.7-17c10.1-.6 18.4-3.1 18.4-3.1s2.4-8.3 3.1-18.4c9.6-3.2 17-7.7 17-7.7s.2-8.7-1.8-18.5c8.4-5.6 14.4-11.8 14.4-11.8s-2-8.4-6.5-17.4c6.7-7.6 10.8-15.2 10.8-15.2zm-112.3 51.2s-2.7 2.6-6.1 6.7c-4.4-3.1-7.6-4.9-7.6-4.9s-3.3 1.8-7.6 4.9c-3.4-4.1-6.1-6.7-6.1-6.7s-3.6.9-8.6 2.7c-2.2-4.9-4.2-8-4.2-8s-3.7-.1-9 .4c-.9-5.3-1.9-8.8-1.9-8.8s-3.6-1-8.8-1.9c.5-5.3.4-9 .4-9s-3.2-1.9-8-4.2c1.9-5 2.7-8.6 2.7-8.6s-2.6-2.7-6.7-6.1c3.1-4.4 4.9-7.6 4.9-7.6s-1.8-3.3-4.9-7.6c4.1-3.4 6.7-6.1 6.7-6.1s-.9-3.6-2.7-8.6c4.9-2.2 8-4.2 8-4.2s.1-3.7-.4-9c5.3-.9 8.8-1.9 8.8-1.9s1-3.6 1.9-8.8c5.3.5 9 .4 9 .4s1.9-3.2 4.2-8c5 1.9 8.6 2.7 8.6 2.7s2.7-2.6 6.1-6.7c4.4 3.1 7.6 4.9 7.6 4.9s3.3-1.8 7.6-4.9c3.4 4.1 6.1 6.7 6.1 6.7s3.6-.9 8.6-2.7c2.2 4.9 4.2 8 4.2 8s3.7.1 9-.4c.9 5.3 1.9 8.8 1.9 8.8s3.6 1 8.8 1.9c-.5 5.3-.4 9-.4 9s3.2 1.9 8 4.2c-1.9 5-2.7 8.6-2.7 8.6s2.6 2.7 6.7 6.1c-3.1 4.4-4.9 7.6-4.9 7.6s1.8 3.3 4.9 7.6c-4.1 3.4-6.7 6.1-6.7 6.1s.9 3.6 2.7 8.6c-4.9 2.2-8 4.2-8 4.2s-.1 3.7.4 9c-5.3.9-8.8 1.9-8.8 1.9s-1 3.6-1.9 8.8c-5.3-.5-9-.4-9-.4s-1.9 3.2-4.2 8c-5-1.8-8.6-2.7-8.6-2.7z" style="fill:#d41100"/></svg>